{"title":"The Flash S02E14 Escape from Earth-2 1080P WEB-DL DD5 1 H 264","uid":13575703,"size":1715707090,"categoryP":"video","categoryS":"hd___tv_shows","magnet":"?xt=urn:btih:b374f5aecd04331bd1cc8749937d47acd671e28f&amp;dn=The+Flash+S02E14+Escape+from+Earth-2+1080P+WEB-DL+DD5+1+H+264&amp;tr=udp%3A%2F%2Ftracker.leechers-paradise.org%3A6969&amp;tr=udp%3A%2F%2Fzer0day.ch%3A1337&amp;tr=udp%3A%2F%2Fopen.demonii.com%3A1337&amp;tr=udp%3A%2F%2Ftracker.coppersurfer.tk%3A6969&amp;tr=udp%3A%2F%2Fexodus.desync.com%3A6969","seeders":1,"leechers":0,"uploader":"jmanwf","files":2,"time":1455706369,"description":"In the exciting conclusion to their Earth-2 journey, the team races to find Zoom's lair by asking for help from the most unexpected source on Earth-2. Meanwhile, back on Earth-1, Caitlin rushes to perfect Velocity-9 so that Jay can stop Geomancer.\r\n\r\n\r\nVideo\r\nID : 2\r\nFormat : AVC\r\nFormat/Info : Advanced Video Codec\r\nFormat profile :   \r\nFormat settings, CABAC : Yes\r\nFormat settings, ReFrames : 4 frames\r\nCodec ID : avc1\r\nCodec ID/Info : Advanced Video Coding\r\nDuration : 41mn 23s\r\nBit rate : 5 012 Kbps\r\nWidth : 1 916 pixels\r\nHeight : 1 076 pixels\r\nDisplay aspect ratio : 16:9\r\nFrame rate mode : Constant\r\nFrame rate : 23.976 fps\r\nColor space : YUV\r\nChroma subsampling : 4:2:0\r\nBit depth : 8 bits\r\nScan type : Progressive\r\nBits/(Pixel*Frame) : 0.101\r\nStream size : 1.45 GiB (91%)\r\nLanguage : English\r\nEncoded date : UTC 2016-02-17 08:57:02\r\nTagged date : UTC 2016-02-17 09:01:57\r\nColor range : Limited\r\nColor primaries : BT.709\r\nTransfer characteristics : BT.709\r\nMatrix coefficients : BT.709\r\n\r\nAudio #1\r\nID : 1\r\nFormat : AAC\r\nFormat/Info : Advanced Audio Codec\r\nFormat profile : LC\r\nCodec ID : 40\r\nDuration : 41mn 23s\r\nBit rate mode : Variable\r\nBit rate : 125 Kbps\r\nMaximum bit rate : 220 Kbps\r\nChannel(s) : 2 channels\r\nChannel positions : Front: L R\r\nSampling rate : 48.0 KHz\r\nCompression mode : Lossy\r\nStream size : 37.0 MiB (2%)\r\nLanguage : English\r\nEncoded date : UTC 2016-02-17 08:57:02\r\nTagged date : UTC 2016-02-17 09:01:57\r\n\r\nAudio #2\r\nID : 3\r\nFormat : AC-3\r\nFormat/Info : Audio Coding 3\r\nMode extension : CM (complete main)\r\nFormat settings, Endianness : Big\r\nCodec ID : ac-3\r\nDuration : 41mn 23s\r\nBit rate mode : Constant\r\nBit rate : 384 Kbps\r\nChannel(s) : 6 channels\r\nChannel positions : Front: L C R, Side: L R, LFE\r\nSampling rate : 48.0 KHz\r\nBit depth : 16 bits\r\nCompression mode : Lossy\r\nStream size : 114 MiB (7%)\r\nLanguage : English\r\nEncoded date : UTC 2016-02-17 08:57:02\r\nTagged date : UTC 2016-02-17 09:01:57\r\n\r\nText\r\nID : 4-CC1\r\nFormat : EIA-608\r\nMuxing mode : Final Cut\r\nCodec ID : c608\r\nDuration : 40mn 46s\r\nBit rate mode : Constant\r\nStream size : 0.00 Byte (0%)\r\nLanguage : English\r\nEncoded date : UTC 2016-02-17 08:57:02\r\nTagged date : UTC 2016-02-17 08:57:20","torrent":{"xt":"urn:btih:b374f5aecd04331bd1cc8749937d47acd671e28f","amp;dn":"The+Flash+S02E14+Escape+from+Earth-2+1080P+WEB-DL+DD5+1+H+264","amp;tr":["udp%3A%2F%2Ftracker.leechers-paradise.org%3A6969","udp%3A%2F%2Fzer0day.ch%3A1337","udp%3A%2F%2Fopen.demonii.com%3A1337","udp%3A%2F%2Ftracker.coppersurfer.tk%3A6969","udp%3A%2F%2Fexodus.desync.com%3A6969"],"infoHash":"b374f5aecd04331bd1cc8749937d47acd671e28f","infoHashBuffer":{"type":"Buffer","data":[179,116,245,174,205,4,51,27,209,204,135,73,147,125,71,172,214,113,226,143]},"announce":[],"urlList":[]}}